<svg width="108" height="140" viewBox="0 0 108 140" fill="none" xmlns="http://www.w3.org/2000/svg">
<path fill-rule="evenodd" clip-rule="evenodd" d="M48.6193 3.34627L45.273 6.69254V13.449V20.2065L40.5174 21.8954C37.9024 22.8245 33.7314 25.1344 31.2502 27.029L26.7377 30.4747L19.0285 26.0704C14.7876 23.6483 10.5644 21.6641 9.64217 21.6592C7.39132 21.6494 5.76838 27.586 6.92186 31.6085C8.06057 35.5777 9.4473 37.1711 14.6399 40.4761L18.9458 43.2161L19.0688 54.0383L19.1918 64.8605L11.0722 69.3809C1.92804 74.4732 1.16824 76.0755 5.98096 80.1244C10.4177 83.8585 13.5977 83.8447 21.7931 80.0565L27.3479 77.4897L31.2256 80.6057C33.3574 82.3202 37.2804 84.5474 39.9417 85.5562L44.7809 87.3898L45.273 97.5693L45.7651 107.749L47.5652 108.092C50.3968 108.633 54.9762 106.3 57.1926 103.187C58.48 101.379 59.4573 97.9718 59.8736 93.8461L60.5281 87.3514L64.895 85.6468C67.2964 84.7088 70.9202 82.5495 72.9477 80.8468C74.9761 79.1442 77.0714 77.7515 77.6039 77.7515C78.1373 77.7515 81.9442 79.7445 86.0641 82.1804C90.1839 84.6163 94.1896 86.6093 94.9641 86.6093C95.7525 86.6093 96.8873 84.8909 97.5418 82.705L98.712 78.8007L97.2947 75.0775L95.8775 71.3543L90.3768 67.7147L84.8761 64.0742L85.7885 59.349C86.6054 55.118 86.2274 47.9865 85.0188 44.838C84.7639 44.1747 88.1929 41.5705 92.9505 38.8128L101.33 33.9548L101.352 31.8122C101.378 29.1066 97.2859 25.8352 92.8294 24.9986L89.4064 24.3569L83.4884 27.4089L77.5695 30.4609L73.1622 27.0959C70.7372 25.2446 66.7925 22.981 64.395 22.0657L60.036 20.4004V11.7572C60.036 0.821804 59.7122 0 55.4034 0H51.9656L48.6193 3.34627ZM51.9164 6.6079L50.194 8.52019V15.508C50.194 23.4318 49.2531 24.9927 43.8676 26.0035C40.4928 26.6363 31.7994 32.4224 30.2148 35.0896C28.9629 37.1987 27.2209 36.7017 19.1594 31.9362C14.9923 29.4728 11.3409 27.6992 11.0447 27.9955C9.5969 29.4432 13.4431 33.94 19.2361 37.5727L25.6905 41.6197L25.0803 43.2003C22.7379 49.2581 22.6877 58.3953 24.9651 63.9728C25.8608 66.1646 24.8185 67.1763 16.9774 71.7282C13.0534 74.0057 9.84197 76.293 9.84197 76.8106C9.84197 78.7731 16.4361 77.601 21.1602 74.7989C23.8668 73.1937 26.6776 71.8719 27.4069 71.8631C28.1352 71.8542 30.7187 73.5953 33.1468 75.7329C35.5758 77.8706 39.6297 80.3449 42.1561 81.2326C44.6825 82.1194 47.4137 83.1853 48.2256 83.6016L49.7019 84.3575L49.9854 93.357C50.1409 98.3065 50.6399 102.356 51.0946 102.356C53.0905 102.356 54.0609 99.2759 54.3316 92.0795L54.6229 84.3555L56.0992 83.6006C56.9112 83.1853 59.7644 82.0731 62.4384 81.1293C65.1135 80.1855 69.1487 77.7112 71.4064 75.6296C73.6642 73.549 76.0813 71.8464 76.7791 71.8464C77.476 71.8464 81.1195 73.6179 84.8751 75.7831C92.4161 80.1313 93.4987 80.4345 93.4987 78.1993C93.4987 76.1817 90.0323 72.9585 84.2541 69.6024L79.5428 66.8673L80.3242 61.7288C81.2877 55.3906 81.2858 53.1319 80.3144 46.2356L79.5497 40.8009L87.0158 36.5285C91.1228 34.1792 94.4829 31.8929 94.4829 31.45C94.4829 31.0061 93.6296 30.3723 92.5863 30.0406C90.5973 29.4098 86.5621 30.9126 80.59 34.5089L77.0301 36.6525L71.4783 32.1301C68.0277 29.3192 63.8813 27.0142 60.5222 26.0369L55.118 24.4661L54.5176 22.0745C54.1879 20.7597 54.1328 18.6879 54.3946 17.4695C54.6574 16.2511 54.5954 12.8792 54.2558 9.97582L53.6387 4.6956L51.9164 6.6079ZM42.2781 44.8449C37.364 52.187 33.4853 58.9416 33.6595 59.8539L33.9764 61.5123L42.0852 61.7977L50.194 62.0841V68.9331V75.7831H52.1339H54.0737L62.5221 62.8931C67.1685 55.8039 70.8297 49.2718 70.6594 48.3762L70.3484 46.7493L62.7317 46.462L55.115 46.1746V40.0155C55.115 34.3809 54.054 31.4943 51.9833 31.4943C51.5591 31.4943 47.1922 37.5018 42.2781 44.8449ZM44.656 49.7236C42.4218 53.183 40.8343 56.2537 41.1286 56.548C41.4239 56.8423 44.4611 57.0834 47.8792 57.0834H54.0934L54.6898 59.7899C55.0186 61.279 55.3768 62.8823 55.487 63.3547C55.5973 63.8261 57.545 61.3902 59.8145 57.9416L63.9433 51.6703L57.3147 51.1782L50.6861 50.6861L50.381 46.9954C50.2127 44.966 49.7698 43.3342 49.3968 43.3696C49.0228 43.405 46.8901 46.2651 44.656 49.7236ZM0 109.612V111.946L4.17398 112.615C6.46912 112.982 11.9196 115.229 16.2865 117.609C21.4004 120.397 26.3627 122.281 30.2345 122.904L36.244 123.872L42.7486 122.511C46.5889 121.708 51.5749 119.717 54.9211 117.652C67.0267 110.18 76.5016 110.241 89.1151 117.872C94.0164 120.837 98.1529 122.366 104.079 123.401L107.277 123.96V121.157V118.354L102.418 117.887C99.0299 117.561 95.5163 116.185 90.8059 113.34C77.9592 105.578 67.3564 105.465 53.2716 112.94C39.5568 120.219 30.4461 120.382 19.3562 113.547C14.0159 110.256 5.73393 107.317 1.72234 107.289C0.562961 107.281 0 108.04 0 109.612ZM0 126.383V128.757L4.18284 129.453C6.4829 129.836 12.4836 132.31 17.5177 134.952L26.6688 139.756H34.8396C44.0241 139.756 47.2552 138.867 55.1268 134.178C58.1394 132.384 63.1342 130.408 66.2256 129.787L71.8464 128.658L77.287 129.751C80.3173 130.359 85.8151 132.677 89.6938 134.982L96.6579 139.119L101.968 139.559L107.277 140V137.979V135.959L101.987 134.861C99.0781 134.256 94.6315 132.452 92.106 130.851C78.6137 122.294 66.2295 121.882 53.4714 129.564C50.3564 131.439 45.2691 133.68 42.165 134.544L36.5216 136.112L30.8093 134.97C27.6677 134.341 22.9456 132.493 20.3158 130.861C15.2462 127.715 5.3373 124.009 1.99989 124.009H0V126.383Z" fill="#0A2463" fill-opacity="0.8"/>
</svg>
